<svg xmlns="http://www.w3.org/2000/svg" version="1.1" xmlns:xlink="http://www.w3.org/1999/xlink" xmlns:svgjs="http://svgjs.dev/svgjs" width="128" height="128" viewBox="0 0 128 128"><g transform="matrix(0.8046875,0,0,0.8046875,12.760752631578946,12.675774663849403)"><svg viewBox="0 0 95 95" data-background-color="#ffffff" preserveAspectRatio="xMidYMid meet" height="128" width="128" xmlns="http://www.w3.org/2000/svg" xmlns:xlink="http://www.w3.org/1999/xlink"><g id="tight-bounds" transform="matrix(1,0,0,1,-0.24049999999999727,-0.1621222627737211)"><svg viewBox="0 0 95.481 95.32424452554744" height="95.32424452554744" width="95.481"><g><svg viewBox="0 0 95.481 95.32424452554744" height="95.32424452554744" width="95.481"><g><svg viewBox="0 0 95.481 95.32424452554744" height="95.32424452554744" width="95.481"><g id="textblocktransform"><svg viewBox="0 0 95.481 95.32424452554744" height="95.32424452554744" width="95.481" id="textblock"><g><svg viewBox="0 0 95.481 95.32424452554744" height="95.32424452554744" width="95.481"><g><svg viewBox="0 0 95.481 95.32424452554744" height="95.32424452554744" width="95.481"><g><svg xmlns="http://www.w3.org/2000/svg" xml:space="preserve" viewBox="2.6670000000000016 2.606 84.666 84.527" x="0" y="0" height="95.32424452554744" width="95.481" class="icon-icon-0" data-fill-palette-color="accent" id="icon-0"><path d="M81.664 66.022c3.598-6.222 5.669-13.382 5.669-21.072 0-23.333-18.975-42.292-42.305-42.308L45 2.606l-0.028 0.055c-23.33 0.015-42.305 19.002-42.305 42.336 0 7.69 2.071 14.802 5.67 21.024L8.292 66h0.09C15.717 79 29.379 87.133 45 87.133S74.283 79 81.619 66h0.09zM83.333 45a38.1 38.1 0 0 1-4.017 17.055L47.384 6.748C67.414 7.984 83.333 24.664 83.333 45m-25.93-13H32.598L45 10.519zM58 43.383C56 40.153 54.027 38 50.824 36H58zM32 54.616C33 57.996 36.21 61 39.621 62H32zM34.834 49c0-5.606 4.561-10.167 10.167-10.167S55.168 43.394 55.168 49s-4.561 10.167-10.167 10.167c-5.607 0-10.167-4.561-10.167-10.167M58 54.617V62h-7.621C53.79 61 56 57.996 58 54.617M32 43.384V36h7.177C35.974 38 33 40.154 32 43.384M28 62H15.219L28 40.063z m34-21.937L74.781 62H62zM6.667 45c0-20.336 15.919-37.016 35.949-38.252L10.684 62.056A38.1 38.1 0 0 1 6.667 45M45 83.133C31.697 83.133 19.96 77 13.083 66h63.834C70.04 77 58.303 83.133 45 83.133" fill="#99a28e" data-fill-palette-color="accent"></path></svg></g></svg></g></svg></g></svg></g></svg></g></svg></g><defs></defs></svg><rect width="95.481" height="95.32424452554744" fill="none" stroke="none" visibility="hidden"></rect></g></svg></g></svg>