<svg xmlns="http://www.w3.org/2000/svg" version="1.1" xmlns:xlink="http://www.w3.org/1999/xlink" xmlns:svgjs="http://svgjs.dev/svgjs" width="2000" height="363" viewBox="0 0 2000 363"><g transform="matrix(1,0,0,1,6.627341256403383,1.0548284596154929)"><svg viewBox="0 0 396 72" data-background-color="#ffffff" preserveAspectRatio="xMidYMid meet" height="363" width="2000" xmlns="http://www.w3.org/2000/svg" xmlns:xlink="http://www.w3.org/1999/xlink"><g id="tight-bounds" transform="matrix(1,0,0,1,0.2400000000000091,-0.20922217380802977)"><svg viewBox="0 0 395.52 72.41844434761609" height="72.41844434761609" width="395.52"><g><svg viewBox="0 0 496.7832615036603 90.95942297742221" height="72.41844434761609" width="395.52"><g transform="matrix(1,0,0,1,101.26326150366032,5.3472492664888875)"><svg viewBox="0 0 395.52 80.26492444444443" height="80.26492444444443" width="395.52"><g id="textblocktransform"><svg viewBox="0 0 395.52 80.26492444444443" height="80.26492444444443" width="395.52" id="textblock"><g><svg viewBox="0 0 395.52 43.012677106636836" height="43.012677106636836" width="395.52"><g transform="matrix(1,0,0,1,0,0)"><svg width="395.52" viewBox="0.75 -43.35 402.26 43.75" height="43.012677106636836" data-palette-color="#335a02"><path d="M9.1 0L0.75 0 4.9-42.95 19.45-42.95 23.55 0 15.4 0 14.8-6.95 9.6-6.95 9.1 0ZM11.85-35.65L10.25-13.8 14.15-13.8 12.25-35.65 11.85-35.65ZM43.6 0L26.15 0 26.15-42.95 34.75-42.95 34.75-7.3 43.6-7.3 43.6 0ZM55.99 0.4Q51.3 0.4 48.47-2.55 45.64-5.5 45.64-10.65L45.64-10.65 45.64-30.45Q45.64-36.85 48.2-40.1 50.74-43.35 56.2-43.35L56.2-43.35Q60.95-43.35 63.84-40.75 66.75-38.15 66.75-33.25L66.75-33.25 66.75-25.85 58.2-25.85 58.2-32.2Q58.2-34.05 57.74-34.75 57.3-35.45 56.2-35.45L56.2-35.45Q55.05-35.45 54.62-34.65 54.2-33.85 54.2-32.3L54.2-32.3 54.2-10.75Q54.2-9.05 54.7-8.28 55.2-7.5 56.2-7.5L56.2-7.5Q58.2-7.5 58.2-10.75L58.2-10.75 58.2-18.5 66.84-18.5 66.84-10.4Q66.84 0.4 55.99 0.4L55.99 0.4ZM78.24 0L69.69 0 69.69-42.95 78.24-42.95 78.24-27.6 82.29-27.6 82.29-42.95 90.84-42.95 90.84 0 82.29 0 82.29-19.5 78.24-19.5 78.24 0ZM112.39 0L94.64 0 94.64-42.95 111.84-42.95 111.84-34.65 103.39-34.65 103.39-26.3 111.49-26.3 111.49-18.2 103.39-18.2 103.39-8.35 112.39-8.35 112.39 0ZM122.99 0L115.24 0 115.24-42.95 128.34-42.95 131.94-16.75 135.54-42.95 148.74-42.95 148.74 0 140.89 0 140.89-30.95 135.94 0 128.24 0 122.99-30.95 122.99 0ZM160.44 0L152.14 0 152.14-42.95 160.44-42.95 160.44 0ZM174.08 0.4Q168.23 0.4 165.63-2.5 163.03-5.4 163.03-11.85L163.03-11.85 163.03-16.05 171.48-16.05 171.48-10.7Q171.48-7.5 173.53-7.5L173.53-7.5Q174.68-7.5 175.13-8.18 175.58-8.85 175.58-10.45L175.58-10.45Q175.58-12.55 175.08-13.93 174.58-15.3 173.81-16.23 173.03-17.15 171.03-19.1L171.03-19.1 167.33-22.8Q163.03-27 163.03-32.1L163.03-32.1Q163.03-37.6 165.56-40.48 168.08-43.35 172.93-43.35L172.93-43.35Q178.73-43.35 181.28-40.28 183.83-37.2 183.83-30.65L183.83-30.65 175.08-30.65 175.03-33.6Q175.03-34.45 174.56-34.95 174.08-35.45 173.23-35.45L173.23-35.45Q172.23-35.45 171.73-34.9 171.23-34.35 171.23-33.4L171.23-33.4Q171.23-31.3 173.63-29.05L173.63-29.05 178.63-24.25Q180.38-22.55 181.53-21.03 182.68-19.5 183.38-17.43 184.08-15.35 184.08-12.5L184.08-12.5Q184.08-6.15 181.76-2.88 179.43 0.4 174.08 0.4L174.08 0.4ZM199.23 0L190.63 0 190.63-34.7 185.53-34.7 185.53-42.95 204.33-42.95 204.33-34.7 199.23-34.7 199.23 0ZM236.18 0L218.43 0 218.43-42.95 235.63-42.95 235.63-34.65 227.18-34.65 227.18-26.3 235.28-26.3 235.28-18.2 227.18-18.2 227.18-8.35 236.18-8.35 236.18 0ZM246.52 0L237.77 0 242.37-22.8 238.72-43 247.12-43 249.37-28.2 251.32-43 259.77-43 256.07-22.8 260.67 0 251.97 0 249.27-16.8 246.52 0ZM273.22 0.4Q268.52 0.4 265.7-2.55 262.87-5.5 262.87-10.65L262.87-10.65 262.87-30.45Q262.87-36.85 265.42-40.1 267.97-43.35 273.42-43.35L273.42-43.35Q278.17-43.35 281.07-40.75 283.97-38.15 283.97-33.25L283.97-33.25 283.97-25.85 275.42-25.85 275.42-32.2Q275.42-34.05 274.97-34.75 274.52-35.45 273.42-35.45L273.42-35.45Q272.27-35.45 271.85-34.65 271.42-33.85 271.42-32.3L271.42-32.3 271.42-10.75Q271.42-9.05 271.92-8.28 272.42-7.5 273.42-7.5L273.42-7.5Q275.42-7.5 275.42-10.75L275.42-10.75 275.42-18.5 284.07-18.5 284.07-10.4Q284.07 0.4 273.22 0.4L273.22 0.4ZM295.47 0L286.92 0 286.92-42.95 295.47-42.95 295.47-27.6 299.52-27.6 299.52-42.95 308.07-42.95 308.07 0 299.52 0 299.52-19.5 295.47-19.5 295.47 0ZM319.07 0L310.72 0 314.87-42.95 329.42-42.95 333.52 0 325.37 0 324.77-6.95 319.57-6.95 319.07 0ZM321.82-35.65L320.22-13.8 324.12-13.8 322.22-35.65 321.82-35.65ZM344.51 0L336.11 0 336.11-42.95 344.96-42.95 348.91-22.4 348.91-42.95 357.21-42.95 357.21 0 348.81 0 344.51-21.5 344.51 0ZM369.86 0.4Q365.21 0.4 362.94-2.88 360.66-6.15 360.66-12.8L360.66-12.8 360.66-31.3Q360.66-37.25 363.31-40.3 365.96-43.35 371.21-43.35L371.21-43.35Q375.46-43.35 377.81-41.65 380.16-39.95 381.06-36.7 381.96-33.45 381.96-28.35L381.96-28.35 373.56-28.35 373.56-32.2Q373.56-33.75 373.13-34.6 372.71-35.45 371.61-35.45L371.61-35.45Q369.16-35.45 369.16-32.25L369.16-32.25 369.16-11.45Q369.16-9.5 369.66-8.5 370.16-7.5 371.41-7.5L371.41-7.5Q372.66-7.5 373.16-8.5 373.66-9.5 373.66-11.45L373.66-11.45 373.66-17.6 371.36-17.6 371.36-25 381.86-25 381.86 0 378.41 0 376.96-3.6Q374.66 0.4 369.86 0.4L369.86 0.4ZM403.01 0L385.26 0 385.26-42.95 402.46-42.95 402.46-34.65 394.01-34.65 394.01-26.3 402.11-26.3 402.11-18.2 394.01-18.2 394.01-8.35 403.01-8.35 403.01 0Z" opacity="1" transform="matrix(1,0,0,1,0,0)" fill="#ffffff" class="wordmark-text-0" data-fill-palette-color="primary" id="text-0"></path></svg></g></svg></g><g transform="matrix(1,0,0,1,135.41450860522295,53.166937867263236)"><svg viewBox="0 0 124.6909827895541 27.097986577181203" height="27.097986577181203" width="124.6909827895541"><g transform="matrix(1,0,0,1,0,0)"><svg width="124.6909827895541" viewBox="-0.1 -39.65 185.88 40.4" height="27.097986577181203" data-palette-color="#000000"><path d="M24.95 0L18.5 0 16.8-8.1 7.9-8.1 6.25 0-0.1 0 8.6-34.55 16.3-34.55 24.95 0ZM12.35-29.7L8.9-12.9 15.85-12.9 12.35-29.7ZM33.3 0.75Q30.6 0.75 29.02-0.93 27.45-2.6 27.45-5.4L27.45-5.4 27.45-37.05 33.6-37.7 33.6-5.65Q33.6-5 33.9-4.6 34.2-4.2 34.8-4.2L34.8-4.2Q35.15-4.2 35.47-4.3 35.8-4.4 35.9-4.4L35.9-4.4 37.1-0.2Q35.4 0.75 33.3 0.75L33.3 0.75ZM49.65-27.15Q51.8-27.15 53.55-26.43 55.3-25.7 56.9-24.15L56.9-24.15 54.25-20.65Q53.15-21.55 52.17-21.98 51.2-22.4 50.05-22.4L50.05-22.4Q47.8-22.4 46.65-20.28 45.5-18.15 45.5-13.1L45.5-13.1Q45.5-8.2 46.67-6.2 47.84-4.2 50.05-4.2L50.05-4.2Q51.15-4.2 52.05-4.6 52.95-5 54.15-5.85L54.15-5.85 56.9-2.3Q53.7 0.75 49.75 0.75L49.75 0.75Q44.65 0.75 41.82-2.73 39-6.2 39-13L39-13Q39-17.4 40.3-20.6 41.59-23.8 44.02-25.48 46.45-27.15 49.65-27.15L49.65-27.15ZM72.29-27.15Q75.14-27.15 76.79-25.1 78.44-23.05 78.44-19.6L78.44-19.6 78.44 0 72.29 0 72.29-18.9Q72.29-20.8 71.77-21.63 71.24-22.45 70.24-22.45L70.24-22.45Q68.14-22.45 66.09-18.5L66.09-18.5 66.09 0 59.94 0 59.94-37 66.09-37.65 66.09-23.3Q67.34-25.25 68.82-26.2 70.29-27.15 72.29-27.15L72.29-27.15ZM102.84-13.85Q102.84-13.4 102.69-11.3L102.69-11.3 89.04-11.3Q89.24-7.2 90.47-5.58 91.69-3.95 93.94-3.95L93.94-3.95Q95.49-3.95 96.74-4.48 97.99-5 99.44-6.15L99.44-6.15 101.99-2.65Q98.49 0.75 93.59 0.75L93.59 0.75Q88.39 0.75 85.61-2.85 82.84-6.45 82.84-13L82.84-13Q82.84-19.55 85.49-23.35 88.14-27.15 92.99-27.15L92.99-27.15Q97.64-27.15 100.24-23.78 102.84-20.4 102.84-13.85L102.84-13.85ZM96.84-15.3L96.84-15.65Q96.84-19.4 95.94-21.13 95.04-22.85 93.04-22.85L93.04-22.85Q91.19-22.85 90.22-21.18 89.24-19.5 89.04-15.3L89.04-15.3 96.84-15.3ZM118.79-35.25Q121.44-35.25 123.46-34.38 125.49-33.5 127.39-31.7L127.39-31.7 124.34-28.05Q123.04-29.25 121.81-29.83 120.59-30.4 119.14-30.4L119.14-30.4Q116.14-30.4 114.44-27.4 112.74-24.4 112.74-17.35L112.74-17.35Q112.74-10.4 114.44-7.38 116.14-4.35 119.24-4.35L119.24-4.35Q120.79-4.35 121.94-4.98 123.09-5.6 124.64-6.9L124.64-6.9 127.69-3.4Q126.09-1.6 123.84-0.43 121.59 0.75 118.79 0.75L118.79 0.75Q112.94 0.75 109.49-3.8 106.04-8.35 106.04-17.35L106.04-17.35Q106.04-23.3 107.69-27.3 109.34-31.3 112.21-33.27 115.09-35.25 118.79-35.25L118.79-35.25ZM140.34-27.15Q145.34-27.15 148.11-23.65 150.89-20.15 150.89-13.25L150.89-13.25Q150.89-6.65 148.09-2.95 145.28 0.75 140.34 0.75L140.34 0.75Q135.39 0.75 132.59-2.88 129.78-6.5 129.78-13.25L129.78-13.25Q129.78-19.95 132.59-23.55 135.39-27.15 140.34-27.15L140.34-27.15ZM140.34-22.5Q138.19-22.5 137.19-20.38 136.19-18.25 136.19-13.25L136.19-13.25Q136.19-8.2 137.19-6.08 138.19-3.95 140.34-3.95L140.34-3.95Q142.49-3.95 143.49-6.08 144.49-8.2 144.49-13.25L144.49-13.25Q144.49-18.3 143.49-20.4 142.49-22.5 140.34-22.5L140.34-22.5ZM155.43-26.45L161.58-26.45 161.58 0 155.43 0 155.43-26.45ZM158.48-39.65Q160.13-39.65 161.16-38.6 162.18-37.55 162.18-35.9L162.18-35.9Q162.18-34.3 161.16-33.25 160.13-32.2 158.48-32.2L158.48-32.2Q156.83-32.2 155.81-33.25 154.78-34.3 154.78-35.9L154.78-35.9Q154.78-37.55 155.81-38.6 156.83-39.65 158.48-39.65L158.48-39.65ZM179.63-27.15Q182.48-27.15 184.13-25.1 185.78-23.05 185.78-19.6L185.78-19.6 185.78 0 179.63 0 179.63-18.9Q179.63-20.8 179.11-21.63 178.58-22.45 177.58-22.45L177.58-22.45Q175.48-22.45 173.43-18.5L173.43-18.5 173.43 0 167.28 0 167.28-26.45 172.63-26.45 173.08-23Q174.43-25.1 175.96-26.13 177.48-27.15 179.63-27.15L179.63-27.15Z" opacity="1" transform="matrix(1,0,0,1,0,0)" fill="#ffffff" class="slogan-text-1" data-fill-palette-color="secondary" id="text-1"></path></svg></g></svg></g></svg></g></svg></g><g><svg viewBox="0 0 91.10900074303392 90.95942297742221" height="90.95942297742221" width="91.10900074303392"><g><svg xmlns="http://www.w3.org/2000/svg" xml:space="preserve" viewBox="2.6670000000000016 2.606 84.666 84.527" x="0" y="0" height="90.95942297742221" width="91.10900074303392" class="icon-icon-0" data-fill-palette-color="accent" id="icon-0"><path d="M81.664 66.022c3.598-6.222 5.669-13.382 5.669-21.072 0-23.333-18.975-42.292-42.305-42.308L45 2.606l-0.028 0.055c-23.33 0.015-42.305 19.002-42.305 42.336 0 7.69 2.071 14.802 5.67 21.024L8.292 66h0.09C15.717 79 29.379 87.133 45 87.133S74.283 79 81.619 66h0.09zM83.333 45a38.1 38.1 0 0 1-4.017 17.055L47.384 6.748C67.414 7.984 83.333 24.664 83.333 45m-25.93-13H32.598L45 10.519zM58 43.383C56 40.153 54.027 38 50.824 36H58zM32 54.616C33 57.996 36.21 61 39.621 62H32zM34.834 49c0-5.606 4.561-10.167 10.167-10.167S55.168 43.394 55.168 49s-4.561 10.167-10.167 10.167c-5.607 0-10.167-4.561-10.167-10.167M58 54.617V62h-7.621C53.79 61 56 57.996 58 54.617M32 43.384V36h7.177C35.974 38 33 40.154 32 43.384M28 62H15.219L28 40.063z m34-21.937L74.781 62H62zM6.667 45c0-20.336 15.919-37.016 35.949-38.252L10.684 62.056A38.1 38.1 0 0 1 6.667 45M45 83.133C31.697 83.133 19.96 77 13.083 66h63.834C70.04 77 58.303 83.133 45 83.133" fill="#ffffff" data-fill-palette-color="accent"></path></svg></g></svg></g></svg></g><defs></defs></svg><rect width="395.52" height="72.41844434761609" fill="none" stroke="none" visibility="hidden"></rect></g></svg></g></svg>